PathFileType	4	(x/y/z)	TRC_MarkerData\Passive\Passive_Pref0009.trc
DataRate	CameraRate	NumFrames	NumMarkers	Units	OrigDataRate	OrigDataStartFrame	OrigNumFrames
240	240	10	50	mm	240	66	262
Frame#	Time	R_AC			L_AC			HEAD			STERN			L_IC			R_IC			L_ASIS			R_ASIS			L_GT			R_GT			L_PSIS			R_PSIS			SACRAL			L_LAT_KNEE			L_MED_KNEE			R_LAT_KNEE			R_MED_KNEE			L_LAT_ANK			L_MED_ANK			R_LAT_ANK			R_MED_ANK			L_THIGH_PROX_POST			L_THIGH_PROX_ANT			L_THIGH_DIST_ANT			L_THIGH_DIST_POST			R_THIGH_PROX_POST			R_THIGH_PROX_ANT			R_THIGH_DIST_ANT			R_THIGH_DIST_POST			L_SHANK_PROX_POST			L_SHANK_PROX_ANT			L_SHANK_DIST_ANT			L_SHANK_DIST_POST			R_SHANK_PROX_POST			R_SHANK_PROX_ANT			R_SHANK_DIST_ANT			R_SHANK_DIST_POST			L_HEEL_LAT			L_HEEL_SUP			L_HEEL_MED			R_HEEL_LAT			R_HEEL_SUP			R_HEEL_MED			L_1ST_MET			L_5TH_MET			L_TOE			R_1ST_MET			R_5TH_MET			R_TOE			C7			
		X1	Y1	Z1	X2	Y2	Z2	X3	Y3	Z3	X4	Y4	Z4	X5	Y5	Z5	X6	Y6	Z6	X7	Y7	Z7	X8	Y8	Z8	X9	Y9	Z9	X10	Y10	Z10	X11	Y11	Z11	X12	Y12	Z12	X13	Y13	Z13	X14	Y14	Z14	X15	Y15	Z15	X16	Y16	Z16	X17	Y17	Z17	X18	Y18	Z18	X19	Y19	Z19	X20	Y20	Z20	X21	Y21	Z21	X22	Y22	Z22	X23	Y23	Z23	X24	Y24	Z24	X25	Y25	Z25	X26	Y26	Z26	X27	Y27	Z27	X28	Y28	Z28	X29	Y29	Z29	X30	Y30	Z30	X31	Y31	Z31	X32	Y32	Z32	X33	Y33	Z33	X34	Y34	Z34	X35	Y35	Z35	X36	Y36	Z36	X37	Y37	Z37	X38	Y38	Z38	X39	Y39	Z39	X40	Y40	Z40	X41	Y41	Z41	X42	Y42	Z42	X43	Y43	Z43	X44	Y44	Z44	X45	Y45	Z45	X46	Y46	Z46	X47	Y47	Z47	X48	Y48	Z48	X49	Y49	Z49	X50	Y50	Z50	

66	0.27187	-450.66	1508.7	402.87	-441.28	1511.9	51.158	-453.66	1795.3	223.88	-407.59	1452	230.41	-492.51	1082.7	81.39	-487.8	1103.9	408.08	-432.37	1007.7	108.01	-415.75	1010.5	381.68	-511.12	921.84	55.534	-489.34	937.8	442.41	-613.08	1068.7	200.2	-609.1	1076.7	291.89	-624.6	1040.5	247.51	-434.26	525.73	111.58	-466.43	527.91	244.92	-424.7	532.07	410.64	-420.13	536.74	275.42	-514.44	113.54	145.29	-512.76	116.11	217.93	-730.66	246.46	416.73	-704.46	244.55	327.56	-494.47	749.6	84.608	-430.95	757.09	98.003	-416.86	685.39	112.43	-481.73	676.05	99.436	-488.76	719.64	420.94	-423.55	739.27	428.82	-408.37	665.98	422.57	-472.73	647.06	411.32	-461.69	442.96	116.45	-417.95	449.2	142.25	-436.35	392.96	148.83	-493.94	389.58	139	-570.81	458.57	417.21	-519.85	413.32	426.5	-574.8	359.67	421.34	-624.75	407.77	410	-604.44	49.177	153.98	-609.6	78.151	186.47	-601.47	48.684	220.44	-825.8	253.08	385.84	-802.19	269.42	352.51	-812	241.64	320.77	-392.49	53.353	231.25	-425.73	37.836	126.48	-332.82	57.539	197.13	-677.2	90.152	348.38	-712.39	112.3	449.69	-644.29	57.1	404.61	-523.92	1570.1	223.77
67	0.27605	-445.93	1509.3	402.71	-435.26	1512.9	50.948	-447.77	1796.2	223.63	-402.17	1452.9	230.3	-486.93	1083.4	80.848	-482.85	1105	407.49	-426.87	1008.1	107.65	-410.62	1011.9	381.32	-506.32	922.31	55.215	-483.5	939.22	442.04	-607.65	1069.6	199.42	-603.82	1077.6	291.08	-619.32	1041.4	246.76	-432.16	525.68	111.28	-464.17	528.07	244.62	-414.41	534.03	409.86	-409.82	538.93	274.74	-514.04	113.87	145.25	-512.32	116.47	217.86	-716.73	244.33	415.36	-690.17	242.63	326.34	-490.8	750.06	84.305	-427.16	757.14	97.62	-413.57	685.33	112.02	-478.58	676.4	99.126	-480.52	720.93	420.54	-415.44	741.19	428.44	-399.55	668.15	422.18	-463.67	648.54	410.87	-459.93	443.04	116.23	-416.16	449.1	142.01	-434.79	392.96	148.62	-492.39	389.81	138.8	-559.81	458.71	416.2	-508.25	414.1	425.54	-562.45	359.74	420.38	-613.03	407.15	408.88	-604.28	49.736	154	-609.4	78.737	186.44	-601.37	49.27	220.43	-812.13	248.03	384.32	-789.17	264.89	350.98	-797.88	236.51	319.38	-392.38	53.33	231.24	-425.65	37.824	126.46	-332.69	57.351	197.11	-658.55	89.332	348.25	-694.64	111.16	449.35	-624.79	57.679	404.77	-518.45	1571	223.34
68	0.28024	-441.2	1510	402.56	-429.26	1514	50.745	-441.89	1797.1	223.4	-396.75	1453.8	230.19	-481.38	1084	80.324	-477.89	1106.2	406.91	-421.39	1008.6	107.31	-405.47	1013.2	380.96	-501.54	922.78	54.91	-477.65	940.62	441.67	-602.22	1070.5	198.66	-598.55	1078.6	290.31	-614.04	1042.3	246.05	-430.08	525.65	110.99	-461.94	528.23	244.33	-404.24	535.99	409.05	-399.63	541.15	274.03	-513.63	114.21	145.2	-511.87	116.84	217.8	-702.65	242.01	413.99	-675.75	240.55	325.1	-487.14	750.53	84.01	-423.39	757.2	97.249	-410.3	685.28	111.63	-475.43	676.76	98.812	-472.35	722.24	420.12	-407.4	743.1	428.05	-390.83	670.32	421.77	-454.69	650.05	410.39	-458.19	443.14	116.01	-414.4	449.02	141.78	-433.24	392.97	148.43	-490.86	390.06	138.62	-548.88	458.77	415.14	-496.68	414.84	424.57	-550.1	359.74	419.4	-601.34	406.42	407.72	-604.12	50.325	154.03	-609.21	79.356	186.4	-601.26	49.885	220.43	-798.23	242.76	382.82	-775.96	260.15	349.45	-783.53	231.21	318	-392.26	53.31	231.22	-425.57	37.817	126.44	-332.57	57.165	197.09	-639.78	88.485	348.07	-676.73	109.95	448.98	-605.2	58.251	404.87	-512.97	1572	222.92
69	0.28442	-436.46	1510.6	402.4	-423.28	1515	50.548	-436	1797.9	223.19	-391.32	1454.7	230.07	-475.87	1084.7	79.816	-472.9	1107.3	406.33	-415.93	1009.1	106.97	-400.3	1014.5	380.58	-496.78	923.25	54.617	-471.79	942.02	441.32	-596.77	1071.3	197.93	-593.27	1079.6	289.56	-608.77	1043.3	245.38	-428.03	525.63	110.71	-459.74	528.4	244.05	-394.2	537.97	408.22	-389.57	543.38	273.31	-513.21	114.56	145.16	-511.42	117.23	217.74	-688.41	239.51	412.61	-661.21	238.33	323.85	-483.49	751	83.724	-419.63	757.27	96.889	-407.04	685.24	111.25	-472.29	677.14	98.497	-464.25	723.55	419.69	-399.45	745	427.65	-382.21	672.49	421.34	-445.81	651.57	409.88	-456.47	443.25	115.8	-412.65	448.95	141.56	-431.71	392.99	148.24	-489.35	390.31	138.44	-538.02	458.73	414.05	-485.16	415.53	423.57	-537.74	359.67	418.39	-589.65	405.57	406.53	-603.95	50.942	154.05	-609.01	80.009	186.36	-601.13	50.525	220.42	-784.09	237.3	381.35	-762.56	255.23	347.94	-768.97	225.73	316.65	-392.14	53.293	231.2	-425.49	37.813	126.42	-332.44	56.979	197.07	-620.89	87.621	347.85	-658.68	108.69	448.59	-585.52	58.821	404.9	-507.5	1572.9	222.5
70	0.2886	-431.71	1511.3	402.24	-417.3	1516	50.358	-430.12	1798.8	222.99	-385.89	1455.7	229.96	-470.4	1085.3	79.321	-467.88	1108.4	405.77	-410.49	1009.6	106.63	-395.1	1015.9	380.2	-492.02	923.72	54.335	-465.92	943.41	440.97	-591.32	1072.2	197.24	-587.99	1080.5	288.85	-603.49	1044.2	244.74	-425.99	525.62	110.43	-457.58	528.58	243.77	-384.3	539.94	407.36	-379.64	545.62	272.57	-512.8	114.93	145.13	-510.97	117.63	217.68	-674.02	236.84	411.22	-646.53	235.97	322.59	-479.84	751.48	83.45	-415.89	757.35	96.543	-403.81	685.21	110.89	-469.15	677.52	98.179	-456.23	724.86	419.25	-391.58	746.89	427.25	-373.69	674.65	420.89	-437.02	653.1	409.33	-454.76	443.37	115.6	-410.91	448.9	141.34	-430.18	393.03	148.07	-487.84	390.58	138.28	-527.21	458.61	412.92	-473.68	416.16	422.55	-525.37	359.53	417.37	-577.98	404.6	405.31	-603.78	51.586	154.07	-608.81	80.694	186.32	-600.98	51.19	220.41	-769.71	231.66	379.9	-748.94	250.13	346.44	-754.17	220.11	315.3	-392.03	53.279	231.18	-425.41	37.815	126.4	-332.31	56.794	197.05	-601.89	86.745	347.59	-640.49	107.36	448.16	-565.78	59.394	404.88	-502.03	1573.7	222.09
71	0.29278	-426.95	1511.9	402.08	-411.34	1517.1	50.174	-424.24	1799.6	222.8	-380.46	1456.6	229.84	-464.95	1086	78.837	-462.83	1109.5	405.22	-405.06	1010.1	106.29	-389.88	1017.1	379.82	-487.26	924.19	54.064	-460.04	944.78	440.63	-585.85	1073	196.57	-582.7	1081.5	288.16	-598.2	1045.1	244.13	-423.97	525.63	110.17	-455.45	528.77	243.51	-374.53	541.9	406.47	-369.84	547.87	271.82	-512.38	115.31	145.09	-510.51	118.04	217.61	-659.47	234.01	409.83	-631.73	233.48	321.31	-476.19	751.95	83.188	-412.17	757.42	96.211	-400.59	685.19	110.55	-465.99	677.92	97.862	-448.29	726.17	418.78	-383.81	748.76	426.83	-365.27	676.8	420.41	-428.34	654.63	408.75	-453.06	443.51	115.4	-409.19	448.86	141.13	-428.66	393.08	147.9	-486.35	390.85	138.12	-516.46	458.38	411.77	-462.24	416.75	421.51	-513	359.3	416.32	-566.32	403.51	404.07	-603.59	52.254	154.1	-608.62	81.409	186.27	-600.81	51.875	220.41	-755.08	225.85	378.46	-735.12	244.86	344.95	-739.14	214.35	313.98	-391.91	53.267	231.16	-425.32	37.821	126.37	-332.18	56.61	197.02	-582.8	85.868	347.27	-622.16	105.99	447.69	-545.98	59.975	404.78	-496.55	1574.6	221.68
72	0.29697	-422.17	1512.5	401.92	-405.39	1518.1	49.997	-418.37	1800.5	222.62	-375.02	1457.5	229.72	-459.52	1086.6	78.363	-457.74	1110.6	404.68	-399.66	1010.5	105.94	-384.63	1018.4	379.43	-482.51	924.65	53.804	-454.16	946.13	440.3	-580.37	1073.8	195.93	-577.41	1082.4	287.51	-592.91	1045.9	243.55	-421.96	525.64	109.92	-453.36	528.97	243.27	-364.9	543.85	405.56	-360.17	550.11	271.05	-511.96	115.7	145.06	-510.05	118.47	217.55	-644.77	231.03	408.44	-616.8	230.87	320.03	-472.53	752.42	82.941	-408.45	757.5	95.894	-397.38	685.18	110.23	-462.82	678.33	97.546	-440.42	727.48	418.3	-376.14	750.62	426.4	-356.96	678.91	419.9	-419.77	656.15	408.13	-451.37	443.65	115.21	-407.47	448.83	140.94	-427.14	393.14	147.75	-484.86	391.14	137.98	-505.77	458.05	410.59	-450.84	417.27	420.46	-500.61	359	415.26	-554.67	402.3	402.81	-603.4	52.945	154.12	-608.43	82.154	186.22	-600.61	52.578	220.41	-740.2	219.9	377.05	-721.07	239.44	343.47	-723.88	208.48	312.66	-391.79	53.258	231.13	-425.23	37.83	126.35	-332.04	56.426	197	-563.61	84.995	346.9	-603.72	104.57	447.18	-526.12	60.569	404.62	-491.07	1575.5	221.28
73	0.30115	-417.38	1513.2	401.76	-399.44	1519.1	49.825	-412.5	1801.3	222.45	-369.57	1458.4	229.6	-454.11	1087.2	77.897	-452.62	1111.6	404.14	-394.29	1011	105.6	-379.35	1019.6	379.03	-477.75	925.1	53.554	-448.28	947.47	439.97	-574.89	1074.6	195.32	-572.1	1083.3	286.9	-587.6	1046.8	243.01	-419.96	525.67	109.68	-451.3	529.18	243.04	-355.41	545.77	404.62	-350.64	552.33	270.26	-511.54	116.11	145.03	-509.59	118.9	217.48	-629.92	227.9	407.05	-601.75	228.14	318.74	-468.88	752.89	82.709	-404.74	757.58	95.593	-394.18	685.17	109.93	-459.64	678.76	97.236	-432.63	728.77	417.8	-368.57	752.45	425.97	-348.76	681	419.37	-411.31	657.67	407.47	-449.69	443.81	115.03	-405.77	448.81	140.75	-425.63	393.21	147.61	-483.38	391.43	137.84	-495.12	457.61	409.38	-439.5	417.73	419.38	-488.22	358.63	414.18	-543.03	400.97	401.52	-603.21	53.656	154.14	-608.23	82.925	186.17	-600.38	53.296	220.42	-725.06	213.8	375.66	-706.78	233.87	342.01	-708.37	202.5	311.36	-391.67	53.251	231.11	-425.14	37.844	126.33	-331.91	56.242	196.98	-544.33	84.137	346.47	-585.15	103.12	446.63	-506.23	61.182	404.37	-485.59	1576.3	220.88
74	0.30533	-412.57	1513.8	401.6	-393.51	1520.1	49.658	-406.63	1802	222.29	-364.12	1459.3	229.48	-448.71	1087.8	77.438	-447.45	1112.7	403.61	-388.93	1011.4	105.25	-374.03	1020.8	378.63	-472.97	925.55	53.314	-442.39	948.77	439.66	-569.4	1075.3	194.74	-566.78	1084.2	286.32	-582.29	1047.6	242.49	-417.97	525.7	109.47	-449.27	529.39	242.84	-346.07	547.66	403.67	-341.25	554.54	269.46	-511.12	116.52	145.01	-509.12	119.35	217.42	-614.91	224.64	405.66	-586.56	225.32	317.44	-465.23	753.36	82.492	-401.04	757.65	95.31	-390.98	685.16	109.66	-456.46	679.19	96.936	-424.93	730.04	417.27	-361.12	754.25	425.53	-340.67	683.04	418.8	-402.96	659.16	406.78	-448.02	443.97	114.86	-404.07	448.81	140.58	-424.12	393.29	147.48	-481.9	391.73	137.72	-484.53	457.06	408.14	-428.19	418.13	418.29	-475.82	358.17	413.08	-531.39	399.51	400.23	-603.01	54.385	154.17	-608.04	83.72	186.12	-600.13	54.026	220.43	-709.68	207.59	374.28	-692.26	228.17	340.55	-692.63	196.43	310.07	-391.54	53.247	231.08	-425.05	37.862	126.3	-331.78	56.058	196.95	-524.98	83.302	345.99	-566.47	101.63	446.02	-486.29	61.82	404.06	-480.1	1577.1	220.49
75	0.30951	-407.73	1514.5	401.44	-387.57	1521	49.496	-400.77	1802.8	222.14	-358.66	1460.2	229.34	-443.34	1088.4	76.984	-442.25	1113.7	403.09	-383.6	1011.8	104.89	-368.69	1022	378.23	-468.19	925.98	53.085	-436.5	950.05	439.35	-563.9	1076.1	194.2	-561.44	1085.1	285.77	-576.96	1048.5	242.01	-416	525.74	109.27	-447.27	529.61	242.65	-336.87	549.52	402.69	-332	556.7	268.64	-510.69	116.94	144.99	-508.65	119.8	217.35	-599.74	221.26	404.26	-571.25	222.4	316.14	-461.57	753.82	82.29	-397.35	757.71	95.045	-387.78	685.15	109.41	-453.26	679.62	96.649	-417.31	731.29	416.73	-353.79	756.02	425.09	-332.68	685.04	418.2	-394.73	660.64	406.05	-446.35	444.13	114.69	-402.38	448.81	140.42	-422.62	393.37	147.36	-480.43	392.03	137.61	-473.98	456.39	406.88	-416.94	418.46	417.18	-463.42	357.65	411.97	-519.75	397.94	398.91	-602.8	55.129	154.19	-607.85	84.536	186.08	-599.85	54.766	220.45	-694.04	201.27	372.92	-677.49	222.35	339.1	-676.64	190.29	308.79	-391.41	53.245	231.05	-424.96	37.884	126.28	-331.64	55.874	196.93	-505.54	82.498	345.44	-547.68	100.12	445.35	-466.31	62.492	403.66	-474.61	1577.9	220.1
